<?xml version="1.0" standalone="no"?>
<!DOCTYPE svg PUBLIC "-//W3C//DTD SVG 20010904//EN"
 "http://www.w3.org/TR/2001/REC-SVG-20010904/DTD/svg10.dtd">
<svg version="1.0" xmlns="http://www.w3.org/2000/svg"
 width="1080.000000pt" height="1080.000000pt" viewBox="0 0 1080.000000 1080.000000"
 preserveAspectRatio="xMidYMid meet">
<metadata>
Created by potrace 1.14, written by Peter Selinger 2001-2017
</metadata>
<g transform="translate(0.000000,1080.000000) scale(0.100000,-0.100000)"
fill="#000000" stroke="none">
<path d="M7163 6246 c-367 -70 -648 -338 -719 -686 -24 -122 -16 -296 21 -410
151 -476 675 -734 1157 -569 276 94 479 306 565 586 23 77 26 105 26 228 0
123 -3 151 -26 228 -93 305 -331 532 -639 607 -108 27 -288 34 -385 16z m375
-413 l2 -253 255 0 255 0 0 -190 0 -190 -255 0 -255 0 -2 -247 -3 -248 -200 0
-200 0 -3 248 -2 247 -255 0 -255 0 0 190 0 190 255 0 255 0 0 248 c0 137 3
252 7 256 4 3 95 5 202 4 l196 -3 3 -252z"/>
<path d="M5506 5859 c-117 -28 -228 -114 -282 -220 -107 -211 -72 -522 75
-669 49 -49 130 -93 202 -109 70 -17 251 -13 306 5 97 32 153 91 153 161 0 58
-14 60 -69 11 -62 -56 -122 -78 -210 -78 -99 0 -139 15 -193 70 -64 67 -80
119 -85 297 -11 316 60 453 233 453 52 0 59 -3 94 -38 35 -34 60 -91 60 -134
0 -37 106 -12 144 33 28 33 34 81 15 123 -17 36 -75 73 -144 91 -65 17 -235
19 -299 4z"/>
<path d="M8993 5852 c-68 -24 -125 -65 -157 -111 -74 -107 -58 -260 38 -351
20 -19 108 -70 199 -115 193 -95 211 -114 205 -207 -5 -65 -29 -100 -85 -124
-41 -18 -114 -18 -157 0 -63 26 -116 118 -116 200 0 32 -26 34 -87 7 -70 -32
-90 -98 -54 -176 22 -49 43 -68 106 -97 45 -21 65 -23 195 -23 139 0 148 1
207 29 146 67 212 205 168 353 -12 40 -27 62 -69 100 -56 51 -83 66 -237 136
-152 70 -201 136 -168 232 11 31 23 45 59 63 53 26 80 28 126 6 41 -20 70 -64
85 -131 l12 -50 48 8 c57 9 92 30 107 65 31 67 0 129 -84 170 -51 25 -70 28
-173 31 -94 3 -126 0 -168 -15z"/>
<path d="M930 5826 c0 -32 2 -34 45 -39 89 -10 85 13 85 -426 0 -212 -4 -391
-8 -397 -13 -19 -50 -34 -86 -34 -34 0 -36 -2 -36 -35 l0 -35 240 0 240 0 0
35 c0 34 -1 35 -40 35 -30 0 -47 7 -65 25 -24 24 -25 28 -25 180 l0 155 49 0
48 0 73 -137 c145 -272 157 -283 337 -291 l103 -5 0 35 c0 32 -3 36 -39 47
-25 7 -50 25 -69 49 -31 39 -202 330 -201 341 0 3 28 24 62 46 84 54 117 117
117 219 -1 148 -78 227 -250 255 -36 6 -181 11 -322 11 l-258 0 0 -34z m528
-72 c44 -25 64 -68 70 -145 6 -84 -11 -155 -45 -191 -28 -30 -108 -52 -165
-46 l-33 3 -3 204 -2 204 74 -6 c44 -3 87 -13 104 -23z"/>
<path d="M2330 5826 c0 -32 2 -34 45 -39 89 -10 85 13 85 -427 0 -306 -3 -390
-13 -404 -9 -12 -31 -20 -65 -24 -51 -4 -52 -5 -52 -38 l0 -34 409 0 408 0 6
68 c4 37 7 95 7 130 l0 63 -47 -3 -47 -3 -11 -56 c-14 -74 -37 -107 -77 -114
-18 -3 -91 -5 -163 -3 l-130 3 -3 198 -2 197 170 0 170 0 0 40 0 40 -170 0
-170 0 0 175 0 175 138 0 c133 0 139 -1 161 -24 12 -13 24 -41 27 -62 12 -86
10 -84 59 -84 l45 0 0 130 0 130 -390 0 -390 0 0 -34z"/>
<path d="M4057 5853 c-3 -5 -75 -198 -160 -430 -86 -232 -163 -433 -172 -446
-17 -26 -55 -47 -85 -47 -16 0 -20 -7 -20 -35 l0 -35 185 0 185 0 0 35 c0 34
-1 35 -38 35 -52 0 -82 23 -82 62 0 18 12 69 27 115 l27 83 171 -2 170 -3 32
-95 c19 -57 30 -105 26 -119 -6 -25 -39 -41 -84 -41 -27 0 -29 -3 -29 -35 l0
-35 230 0 230 0 0 34 c0 30 -3 34 -33 40 -19 3 -44 17 -57 31 -14 15 -60 130
-121 302 -54 153 -124 349 -155 436 l-56 157 -94 0 c-51 0 -95 -3 -97 -7z
m119 -390 c30 -95 54 -177 54 -183 0 -6 -48 -10 -135 -10 -93 0 -135 3 -135
11 0 9 75 230 131 389 l13 35 9 -35 c6 -19 34 -112 63 -207z"/>
<path d="M2018 5054 c-40 -21 -56 -83 -37 -137 17 -50 46 -67 112 -67 40 0 53
5 78 29 24 24 29 38 29 76 0 25 -5 55 -10 66 -25 45 -117 63 -172 33z"/>
<path d="M3348 5054 c-36 -19 -48 -43 -48 -99 0 -38 5 -52 29 -76 24 -24 38
-29 76 -29 66 0 102 22 116 70 17 56 -1 114 -41 135 -37 19 -97 19 -132 -1z"/>
<path d="M4803 5046 c-35 -29 -47 -77 -32 -131 12 -43 50 -65 114 -65 38 0 52
5 76 29 24 25 29 38 29 80 0 72 -28 103 -101 109 -48 4 -59 1 -86 -22z"/>
<path d="M6161 5056 c-49 -27 -65 -99 -36 -157 19 -35 50 -49 109 -49 78 0
118 57 102 145 -12 63 -110 97 -175 61z"/>
<path d="M8448 5054 c-36 -19 -48 -43 -48 -99 0 -38 5 -52 29 -76 24 -24 38
-29 76 -29 66 0 102 22 116 70 17 56 -1 114 -41 135 -37 19 -97 19 -132 -1z"/>
<path d="M9679 5055 c-35 -19 -53 -65 -46 -117 8 -59 34 -81 105 -86 50 -4 62
-1 86 19 53 46 44 154 -15 184 -35 19 -96 19 -130 0z"/>
</g>
</svg>
